<svg width="39" height="17" viewBox="0 0 39 17" fill="none" xmlns="http://www.w3.org/2000/svg">
<path d="M34.4453 9.1197C35.2423 7.9197 37.4343 8.61969 38.4307 9.1197V17.7H7.62939e-06V3.1197C2.70439 4.7697 4.12775 0.569694 5.40877 0.119694C6.68979 -0.330306 7.25913 0.569694 8.25548 1.46969C9.25183 2.36969 10.1058 3.1197 11.5292 3.1197C12.9526 3.1197 13.5219 6.5697 15.0876 7.4697C16.6533 8.3697 17.6496 7.4697 19.3577 7.4697C21.0657 7.4697 22.4891 10.6197 23.6277 10.6197C24.7664 10.6197 25.7628 9.1197 27.0438 7.4697C28.3248 5.8197 29.8905 5.9697 30.7445 7.4697C31.5985 8.9697 33.4489 10.6197 34.4453 9.1197Z" fill="url(#paint0_linear_3787_43546)"/>
<defs>
<linearGradient id="paint0_linear_3787_43546" x1="15.7993" y1="12.45" x2="16.747" y2="1.80834" gradientUnits="userSpaceOnUse">
<stop stop-color="white" stop-opacity="0"/>
<stop offset="1" stop-color="#ED1D25"/>
</linearGradient>
</defs>
</svg>
