<svg width="39" height="18" viewBox="0 0 39 18" fill="none" xmlns="http://www.w3.org/2000/svg">
<path d="M3.9854 9.1197C3.18832 7.9197 0.99635 8.61969 0 9.1197V17.7H38.4307V3.1197C35.7263 4.7697 34.3029 0.569694 33.0219 0.119694C31.7409 -0.330306 31.1715 0.569694 30.1752 1.46969C29.1788 2.36969 28.3248 3.1197 26.9015 3.1197C25.4781 3.1197 24.9088 6.5697 23.3431 7.4697C21.7774 8.3697 20.781 7.4697 19.073 7.4697C17.365 7.4697 15.9416 10.6197 14.8029 10.6197C13.6642 10.6197 12.6679 9.1197 11.3869 7.4697C10.1058 5.8197 8.54015 5.9697 7.68613 7.4697C6.83212 8.9697 4.98175 10.6197 3.9854 9.1197Z" fill="url(#paint0_linear_3787_43531)"/>
<defs>
<linearGradient id="paint0_linear_3787_43531" x1="22.6314" y1="12.45" x2="21.6837" y2="1.80834" gradientUnits="userSpaceOnUse">
<stop stop-color="white" stop-opacity="0"/>
<stop offset="1" stop-color="#4DC88F"/>
</linearGradient>
</defs>
</svg>
